<mxfile host="app.diagrams.net" agent="Mozilla/5.0 (Macintosh; Intel Mac OS X 10_15_7) AppleWebKit/537.36 (KHTML, like Gecko) Chrome/117.0.0.0 Safari/537.36" version="24.7.6">
  <diagram name="第 1 页" id="LhU_5w7jMdHVjknMKNqU">
    <mxGraphModel dx="1120" dy="746" grid="1" gridSize="10" guides="1" tooltips="1" connect="1" arrows="1" fold="1" page="1" pageScale="1" pageWidth="827" pageHeight="1169" math="0" shadow="0">
      <root>
        <mxCell id="0" />
        <mxCell id="1" parent="0" />
        <mxCell id="KmjipeR5iiQRehFi-2iJ-23" value="" style="rounded=0;whiteSpace=wrap;html=1;" parent="1" vertex="1">
          <mxGeometry x="500" y="71" width="410" height="390" as="geometry" />
        </mxCell>
        <mxCell id="KmjipeR5iiQRehFi-2iJ-44" value="" style="rounded=0;whiteSpace=wrap;html=1;" parent="1" vertex="1">
          <mxGeometry x="525" y="231" width="360" height="90" as="geometry" />
        </mxCell>
        <mxCell id="KmjipeR5iiQRehFi-2iJ-43" value="" style="rounded=0;whiteSpace=wrap;html=1;" parent="1" vertex="1">
          <mxGeometry x="526" y="113.5" width="360" height="80" as="geometry" />
        </mxCell>
        <mxCell id="KmjipeR5iiQRehFi-2iJ-2" value="" style="rounded=0;whiteSpace=wrap;html=1;" parent="1" vertex="1">
          <mxGeometry x="114" y="70" width="330" height="400" as="geometry" />
        </mxCell>
        <mxCell id="KmjipeR5iiQRehFi-2iJ-3" value="" style="rounded=0;whiteSpace=wrap;html=1;" parent="1" vertex="1">
          <mxGeometry x="150" y="110" width="120" height="330" as="geometry" />
        </mxCell>
        <mxCell id="KmjipeR5iiQRehFi-2iJ-4" value="criService" style="text;html=1;align=center;verticalAlign=middle;resizable=0;points=[];autosize=1;" parent="1" vertex="1">
          <mxGeometry x="175" y="120" width="70" height="20" as="geometry" />
        </mxCell>
        <mxCell id="KmjipeR5iiQRehFi-2iJ-5" value="" style="rounded=0;whiteSpace=wrap;html=1;" parent="1" vertex="1">
          <mxGeometry x="294" y="110" width="120" height="330" as="geometry" />
        </mxCell>
        <mxCell id="KmjipeR5iiQRehFi-2iJ-6" value="tasksService" style="text;html=1;align=center;verticalAlign=middle;resizable=0;points=[];autosize=1;" parent="1" vertex="1">
          <mxGeometry x="314" y="120" width="80" height="20" as="geometry" />
        </mxCell>
        <mxCell id="KmjipeR5iiQRehFi-2iJ-16" style="edgeStyle=orthogonalEdgeStyle;rounded=0;orthogonalLoop=1;jettySize=auto;html=1;exitX=0.5;exitY=1;exitDx=0;exitDy=0;entryX=0.5;entryY=0;entryDx=0;entryDy=0;" parent="1" source="KmjipeR5iiQRehFi-2iJ-7" target="KmjipeR5iiQRehFi-2iJ-8" edge="1">
          <mxGeometry relative="1" as="geometry" />
        </mxCell>
        <mxCell id="KmjipeR5iiQRehFi-2iJ-7" value="创建sandbox" style="rounded=1;whiteSpace=wrap;html=1;fillColor=#dae8fc;strokeColor=#6c8ebf;" parent="1" vertex="1">
          <mxGeometry x="175" y="160" width="70" height="40" as="geometry" />
        </mxCell>
        <mxCell id="KmjipeR5iiQRehFi-2iJ-17" style="edgeStyle=orthogonalEdgeStyle;rounded=0;orthogonalLoop=1;jettySize=auto;html=1;exitX=0.5;exitY=1;exitDx=0;exitDy=0;" parent="1" source="KmjipeR5iiQRehFi-2iJ-8" target="KmjipeR5iiQRehFi-2iJ-9" edge="1">
          <mxGeometry relative="1" as="geometry" />
        </mxCell>
        <mxCell id="KmjipeR5iiQRehFi-2iJ-8" value="创建container" style="rounded=1;whiteSpace=wrap;html=1;fillColor=#dae8fc;strokeColor=#6c8ebf;" parent="1" vertex="1">
          <mxGeometry x="175" y="230" width="70" height="40" as="geometry" />
        </mxCell>
        <mxCell id="KmjipeR5iiQRehFi-2iJ-18" style="edgeStyle=orthogonalEdgeStyle;rounded=0;orthogonalLoop=1;jettySize=auto;html=1;exitX=0.5;exitY=1;exitDx=0;exitDy=0;entryX=0.5;entryY=0;entryDx=0;entryDy=0;" parent="1" source="KmjipeR5iiQRehFi-2iJ-9" target="KmjipeR5iiQRehFi-2iJ-10" edge="1">
          <mxGeometry relative="1" as="geometry" />
        </mxCell>
        <mxCell id="KmjipeR5iiQRehFi-2iJ-19" style="edgeStyle=orthogonalEdgeStyle;rounded=0;orthogonalLoop=1;jettySize=auto;html=1;exitX=1;exitY=0.5;exitDx=0;exitDy=0;entryX=0;entryY=0.5;entryDx=0;entryDy=0;strokeColor=#001DBC;fillColor=#0050ef;" parent="1" source="KmjipeR5iiQRehFi-2iJ-9" target="KmjipeR5iiQRehFi-2iJ-11" edge="1">
          <mxGeometry relative="1" as="geometry" />
        </mxCell>
        <mxCell id="KmjipeR5iiQRehFi-2iJ-9" value="创建Task" style="rounded=1;whiteSpace=wrap;html=1;fillColor=#dae8fc;strokeColor=#6c8ebf;" parent="1" vertex="1">
          <mxGeometry x="175" y="310" width="70" height="40" as="geometry" />
        </mxCell>
        <mxCell id="KmjipeR5iiQRehFi-2iJ-22" style="edgeStyle=orthogonalEdgeStyle;rounded=0;orthogonalLoop=1;jettySize=auto;html=1;exitX=1;exitY=0.5;exitDx=0;exitDy=0;entryX=0;entryY=0.5;entryDx=0;entryDy=0;strokeColor=#001DBC;fillColor=#0050ef;" parent="1" source="KmjipeR5iiQRehFi-2iJ-10" target="KmjipeR5iiQRehFi-2iJ-13" edge="1">
          <mxGeometry relative="1" as="geometry">
            <Array as="points">
              <mxPoint x="280" y="410" />
              <mxPoint x="280" y="410" />
            </Array>
          </mxGeometry>
        </mxCell>
        <mxCell id="KmjipeR5iiQRehFi-2iJ-10" value="启动Task" style="rounded=1;whiteSpace=wrap;html=1;fillColor=#dae8fc;strokeColor=#6c8ebf;" parent="1" vertex="1">
          <mxGeometry x="175" y="390" width="70" height="40" as="geometry" />
        </mxCell>
        <mxCell id="KmjipeR5iiQRehFi-2iJ-20" style="edgeStyle=orthogonalEdgeStyle;rounded=0;orthogonalLoop=1;jettySize=auto;html=1;exitX=0.5;exitY=1;exitDx=0;exitDy=0;entryX=0.5;entryY=0;entryDx=0;entryDy=0;" parent="1" source="KmjipeR5iiQRehFi-2iJ-11" target="KmjipeR5iiQRehFi-2iJ-12" edge="1">
          <mxGeometry relative="1" as="geometry" />
        </mxCell>
        <mxCell id="KmjipeR5iiQRehFi-2iJ-40" style="edgeStyle=orthogonalEdgeStyle;rounded=0;orthogonalLoop=1;jettySize=auto;html=1;exitX=1;exitY=0.5;exitDx=0;exitDy=0;fillColor=#008a00;strokeColor=#005700;" parent="1" source="KmjipeR5iiQRehFi-2iJ-11" target="KmjipeR5iiQRehFi-2iJ-25" edge="1">
          <mxGeometry relative="1" as="geometry" />
        </mxCell>
        <mxCell id="KmjipeR5iiQRehFi-2iJ-11" value="启动shim" style="rounded=1;whiteSpace=wrap;html=1;fillColor=#d5e8d4;strokeColor=#82b366;" parent="1" vertex="1">
          <mxGeometry x="319" y="160" width="70" height="40" as="geometry" />
        </mxCell>
        <mxCell id="KmjipeR5iiQRehFi-2iJ-45" style="edgeStyle=orthogonalEdgeStyle;rounded=0;orthogonalLoop=1;jettySize=auto;html=1;exitX=1;exitY=0.5;exitDx=0;exitDy=0;entryX=0;entryY=0.5;entryDx=0;entryDy=0;fillColor=#008a00;strokeColor=#005700;" parent="1" source="KmjipeR5iiQRehFi-2iJ-12" target="KmjipeR5iiQRehFi-2iJ-28" edge="1">
          <mxGeometry relative="1" as="geometry" />
        </mxCell>
        <mxCell id="KmjipeR5iiQRehFi-2iJ-12" value="调用shim&lt;br&gt;创建task" style="rounded=1;whiteSpace=wrap;html=1;fillColor=#d5e8d4;strokeColor=#82b366;" parent="1" vertex="1">
          <mxGeometry x="319" y="255" width="70" height="40" as="geometry" />
        </mxCell>
        <mxCell id="KmjipeR5iiQRehFi-2iJ-13" value="调用shim&lt;br&gt;启动task" style="rounded=1;whiteSpace=wrap;html=1;fillColor=#d5e8d4;strokeColor=#82b366;" parent="1" vertex="1">
          <mxGeometry x="320" y="390" width="70" height="40" as="geometry" />
        </mxCell>
        <mxCell id="KmjipeR5iiQRehFi-2iJ-14" value="containerd" style="text;html=1;align=center;verticalAlign=middle;resizable=0;points=[];autosize=1;strokeColor=none;fillColor=none;" parent="1" vertex="1">
          <mxGeometry x="239" y="70" width="80" height="30" as="geometry" />
        </mxCell>
        <mxCell id="KmjipeR5iiQRehFi-2iJ-24" value="RunD shim" style="text;html=1;align=center;verticalAlign=middle;resizable=0;points=[];autosize=1;strokeColor=none;fillColor=none;" parent="1" vertex="1">
          <mxGeometry x="660" y="81" width="80" height="30" as="geometry" />
        </mxCell>
        <mxCell id="KmjipeR5iiQRehFi-2iJ-41" style="edgeStyle=orthogonalEdgeStyle;rounded=0;orthogonalLoop=1;jettySize=auto;html=1;exitX=1;exitY=0.5;exitDx=0;exitDy=0;entryX=0;entryY=0.5;entryDx=0;entryDy=0;fillColor=#60a917;strokeColor=#2D7600;" parent="1" source="KmjipeR5iiQRehFi-2iJ-25" target="KmjipeR5iiQRehFi-2iJ-27" edge="1">
          <mxGeometry relative="1" as="geometry">
            <mxPoint x="676" y="153.5" as="targetPoint" />
          </mxGeometry>
        </mxCell>
        <mxCell id="KmjipeR5iiQRehFi-2iJ-25" value="创建临时shim进程" style="rounded=1;whiteSpace=wrap;html=1;fillColor=#ffe6cc;strokeColor=#d79b00;" parent="1" vertex="1">
          <mxGeometry x="681" y="133.5" width="70" height="40" as="geometry" />
        </mxCell>
        <mxCell id="KmjipeR5iiQRehFi-2iJ-27" value="启动shim进程" style="rounded=1;whiteSpace=wrap;html=1;fillColor=#ffe6cc;strokeColor=#d79b00;" parent="1" vertex="1">
          <mxGeometry x="804" y="133.5" width="70" height="40" as="geometry" />
        </mxCell>
        <mxCell id="KmjipeR5iiQRehFi-2iJ-46" style="edgeStyle=orthogonalEdgeStyle;rounded=0;orthogonalLoop=1;jettySize=auto;html=1;exitX=1;exitY=0.5;exitDx=0;exitDy=0;entryX=0;entryY=0.5;entryDx=0;entryDy=0;" parent="1" source="KmjipeR5iiQRehFi-2iJ-28" target="KmjipeR5iiQRehFi-2iJ-33" edge="1">
          <mxGeometry relative="1" as="geometry" />
        </mxCell>
        <mxCell id="KmjipeR5iiQRehFi-2iJ-28" value="创建Task" style="rounded=1;whiteSpace=wrap;html=1;fillColor=#fff2cc;strokeColor=#d6b656;" parent="1" vertex="1">
          <mxGeometry x="570" y="256" width="70" height="40" as="geometry" />
        </mxCell>
        <mxCell id="KmjipeR5iiQRehFi-2iJ-47" style="edgeStyle=orthogonalEdgeStyle;rounded=0;orthogonalLoop=1;jettySize=auto;html=1;exitX=1;exitY=0.5;exitDx=0;exitDy=0;" parent="1" source="KmjipeR5iiQRehFi-2iJ-33" target="KmjipeR5iiQRehFi-2iJ-34" edge="1">
          <mxGeometry relative="1" as="geometry" />
        </mxCell>
        <mxCell id="KmjipeR5iiQRehFi-2iJ-33" value="启动sandbox" style="rounded=1;whiteSpace=wrap;html=1;fillColor=#fff2cc;strokeColor=#d6b656;" parent="1" vertex="1">
          <mxGeometry x="685" y="256" width="70" height="40" as="geometry" />
        </mxCell>
        <mxCell id="KmjipeR5iiQRehFi-2iJ-34" value="创建container" style="rounded=1;whiteSpace=wrap;html=1;fillColor=#fff2cc;strokeColor=#d6b656;" parent="1" vertex="1">
          <mxGeometry x="802" y="256" width="70" height="40" as="geometry" />
        </mxCell>
        <mxCell id="Ce19-M33MyNlMO0xDM5_-1" value="" style="endArrow=classic;html=1;rounded=0;" edge="1" parent="1">
          <mxGeometry width="50" height="50" relative="1" as="geometry">
            <mxPoint x="114" y="510" as="sourcePoint" />
            <mxPoint x="184" y="510" as="targetPoint" />
          </mxGeometry>
        </mxCell>
        <mxCell id="Ce19-M33MyNlMO0xDM5_-2" value="函数调用" style="text;html=1;align=center;verticalAlign=middle;resizable=0;points=[];autosize=1;strokeColor=none;fillColor=none;" vertex="1" parent="1">
          <mxGeometry x="190" y="496" width="70" height="30" as="geometry" />
        </mxCell>
        <mxCell id="Ce19-M33MyNlMO0xDM5_-3" value="" style="endArrow=classic;html=1;rounded=0;fillColor=#0050ef;strokeColor=#001DBC;" edge="1" parent="1">
          <mxGeometry width="50" height="50" relative="1" as="geometry">
            <mxPoint x="114" y="550" as="sourcePoint" />
            <mxPoint x="184" y="550" as="targetPoint" />
          </mxGeometry>
        </mxCell>
        <mxCell id="Ce19-M33MyNlMO0xDM5_-4" value="rpc调用" style="text;html=1;align=center;verticalAlign=middle;resizable=0;points=[];autosize=1;strokeColor=none;fillColor=none;" vertex="1" parent="1">
          <mxGeometry x="195" y="534" width="60" height="30" as="geometry" />
        </mxCell>
        <mxCell id="Ce19-M33MyNlMO0xDM5_-5" value="" style="endArrow=classic;html=1;rounded=0;fillColor=#60a917;strokeColor=#2D7600;" edge="1" parent="1">
          <mxGeometry width="50" height="50" relative="1" as="geometry">
            <mxPoint x="114" y="585.5" as="sourcePoint" />
            <mxPoint x="184" y="585.5" as="targetPoint" />
          </mxGeometry>
        </mxCell>
        <mxCell id="Ce19-M33MyNlMO0xDM5_-6" value="二进制调用" style="text;html=1;align=center;verticalAlign=middle;resizable=0;points=[];autosize=1;strokeColor=none;fillColor=none;" vertex="1" parent="1">
          <mxGeometry x="185" y="569.5" width="80" height="30" as="geometry" />
        </mxCell>
        <mxCell id="Ce19-M33MyNlMO0xDM5_-7" value="shimv2::run" style="text;html=1;align=center;verticalAlign=middle;resizable=0;points=[];autosize=1;strokeColor=none;fillColor=none;" vertex="1" parent="1">
          <mxGeometry x="676" y="173.5" width="90" height="30" as="geometry" />
        </mxCell>
        <mxCell id="Ce19-M33MyNlMO0xDM5_-8" value="shimv2::start_shim" style="text;html=1;align=center;verticalAlign=middle;resizable=0;points=[];autosize=1;strokeColor=none;fillColor=none;" vertex="1" parent="1">
          <mxGeometry x="778" y="173.5" width="120" height="30" as="geometry" />
        </mxCell>
        <mxCell id="Ce19-M33MyNlMO0xDM5_-10" value="TaskService::&lt;div&gt;do_create&lt;/div&gt;" style="text;html=1;align=center;verticalAlign=middle;resizable=0;points=[];autosize=1;strokeColor=none;fillColor=none;" vertex="1" parent="1">
          <mxGeometry x="560" y="296" width="90" height="40" as="geometry" />
        </mxCell>
        <mxCell id="Ce19-M33MyNlMO0xDM5_-11" value="sandbox::&lt;div&gt;start&lt;/div&gt;" style="text;html=1;align=center;verticalAlign=middle;resizable=0;points=[];autosize=1;strokeColor=none;fillColor=none;" vertex="1" parent="1">
          <mxGeometry x="680" y="296" width="80" height="40" as="geometry" />
        </mxCell>
        <mxCell id="Ce19-M33MyNlMO0xDM5_-12" value="sandbox::&lt;div&gt;create_container()&lt;/div&gt;" style="text;html=1;align=center;verticalAlign=middle;resizable=0;points=[];autosize=1;strokeColor=none;fillColor=none;" vertex="1" parent="1">
          <mxGeometry x="780" y="296" width="120" height="40" as="geometry" />
        </mxCell>
        <mxCell id="Ce19-M33MyNlMO0xDM5_-13" value="" style="rounded=0;whiteSpace=wrap;html=1;" vertex="1" parent="1">
          <mxGeometry x="526" y="361" width="360" height="90" as="geometry" />
        </mxCell>
        <mxCell id="Ce19-M33MyNlMO0xDM5_-14" style="edgeStyle=orthogonalEdgeStyle;rounded=0;orthogonalLoop=1;jettySize=auto;html=1;exitX=1;exitY=0.5;exitDx=0;exitDy=0;fillColor=#008a00;strokeColor=#005700;" edge="1" parent="1" target="Ce19-M33MyNlMO0xDM5_-16">
          <mxGeometry relative="1" as="geometry">
            <mxPoint x="390" y="410" as="sourcePoint" />
          </mxGeometry>
        </mxCell>
        <mxCell id="Ce19-M33MyNlMO0xDM5_-15" style="edgeStyle=orthogonalEdgeStyle;rounded=0;orthogonalLoop=1;jettySize=auto;html=1;exitX=1;exitY=0.5;exitDx=0;exitDy=0;entryX=0;entryY=0.5;entryDx=0;entryDy=0;fillColor=#60a917;strokeColor=#330000;" edge="1" parent="1" source="Ce19-M33MyNlMO0xDM5_-16" target="Ce19-M33MyNlMO0xDM5_-17">
          <mxGeometry relative="1" as="geometry">
            <mxPoint x="676" y="411" as="targetPoint" />
          </mxGeometry>
        </mxCell>
        <mxCell id="Ce19-M33MyNlMO0xDM5_-16" value="" style="rounded=1;whiteSpace=wrap;html=1;fillColor=#ffe6cc;strokeColor=#d79b00;" vertex="1" parent="1">
          <mxGeometry x="571" y="391" width="70" height="40" as="geometry" />
        </mxCell>
        <mxCell id="Ce19-M33MyNlMO0xDM5_-17" value="" style="rounded=1;whiteSpace=wrap;html=1;fillColor=#ffe6cc;strokeColor=#d79b00;" vertex="1" parent="1">
          <mxGeometry x="796" y="391" width="70" height="40" as="geometry" />
        </mxCell>
        <mxCell id="Ce19-M33MyNlMO0xDM5_-18" value="TaskService::&lt;div&gt;do_start&lt;/div&gt;" style="text;html=1;align=center;verticalAlign=middle;resizable=0;points=[];autosize=1;strokeColor=none;fillColor=none;" vertex="1" parent="1">
          <mxGeometry x="561" y="393.5" width="90" height="40" as="geometry" />
        </mxCell>
        <mxCell id="Ce19-M33MyNlMO0xDM5_-19" value="sandbox::&lt;div&gt;start_container&lt;/div&gt;" style="text;html=1;align=center;verticalAlign=middle;resizable=0;points=[];autosize=1;strokeColor=none;fillColor=none;" vertex="1" parent="1">
          <mxGeometry x="785" y="393.5" width="100" height="40" as="geometry" />
        </mxCell>
        <mxCell id="Ce19-M33MyNlMO0xDM5_-27" value="" style="rounded=0;whiteSpace=wrap;html=1;" vertex="1" parent="1">
          <mxGeometry x="1900" y="70" width="160" height="390" as="geometry" />
        </mxCell>
        <mxCell id="Ce19-M33MyNlMO0xDM5_-30" value="agent" style="text;html=1;align=center;verticalAlign=middle;resizable=0;points=[];autosize=1;strokeColor=none;fillColor=none;" vertex="1" parent="1">
          <mxGeometry x="1935" y="82.5" width="50" height="30" as="geometry" />
        </mxCell>
        <mxCell id="Ce19-M33MyNlMO0xDM5_-56" value="" style="rounded=0;whiteSpace=wrap;html=1;" vertex="1" parent="1">
          <mxGeometry x="1920" y="122.5" width="120" height="330" as="geometry" />
        </mxCell>
        <mxCell id="Ce19-M33MyNlMO0xDM5_-57" value="AgentService" style="text;html=1;align=center;verticalAlign=middle;resizable=0;points=[];autosize=1;" vertex="1" parent="1">
          <mxGeometry x="1935" y="127.5" width="90" height="30" as="geometry" />
        </mxCell>
        <mxCell id="Ce19-M33MyNlMO0xDM5_-58" style="edgeStyle=orthogonalEdgeStyle;rounded=0;orthogonalLoop=1;jettySize=auto;html=1;exitX=0.5;exitY=1;exitDx=0;exitDy=0;entryX=0.5;entryY=0;entryDx=0;entryDy=0;" edge="1" parent="1" source="Ce19-M33MyNlMO0xDM5_-59" target="Ce19-M33MyNlMO0xDM5_-60">
          <mxGeometry relative="1" as="geometry" />
        </mxCell>
        <mxCell id="Ce19-M33MyNlMO0xDM5_-59" value="启动shim" style="rounded=1;whiteSpace=wrap;html=1;fillColor=#d5e8d4;strokeColor=#82b366;" vertex="1" parent="1">
          <mxGeometry x="1945" y="172.5" width="70" height="40" as="geometry" />
        </mxCell>
        <mxCell id="Ce19-M33MyNlMO0xDM5_-60" value="" style="rounded=1;whiteSpace=wrap;html=1;fillColor=#d5e8d4;strokeColor=#82b366;" vertex="1" parent="1">
          <mxGeometry x="1945" y="267.5" width="70" height="40" as="geometry" />
        </mxCell>
        <mxCell id="Ce19-M33MyNlMO0xDM5_-61" value="&lt;br class=&quot;Apple-interchange-newline&quot;&gt;do_start_container&lt;div&gt;&lt;/div&gt;" style="rounded=1;whiteSpace=wrap;html=1;fillColor=#d5e8d4;strokeColor=#82b366;" vertex="1" parent="1">
          <mxGeometry x="1945" y="392.5" width="70" height="40" as="geometry" />
        </mxCell>
        <mxCell id="Ce19-M33MyNlMO0xDM5_-62" value="" style="rounded=0;whiteSpace=wrap;html=1;" vertex="1" parent="1">
          <mxGeometry x="970" y="73" width="160" height="390" as="geometry" />
        </mxCell>
        <mxCell id="Ce19-M33MyNlMO0xDM5_-63" value="AgentService" style="text;html=1;align=center;verticalAlign=middle;resizable=0;points=[];autosize=1;strokeColor=none;fillColor=none;" vertex="1" parent="1">
          <mxGeometry x="1005" y="91" width="90" height="30" as="geometry" />
        </mxCell>
        <mxCell id="Ce19-M33MyNlMO0xDM5_-71" style="edgeStyle=orthogonalEdgeStyle;rounded=0;orthogonalLoop=1;jettySize=auto;html=1;exitX=1;exitY=0.5;exitDx=0;exitDy=0;entryX=-0.009;entryY=0.52;entryDx=0;entryDy=0;entryPerimeter=0;fillColor=#6a00ff;strokeColor=#3700CC;" edge="1" parent="1" source="KmjipeR5iiQRehFi-2iJ-34" target="Ce19-M33MyNlMO0xDM5_-62">
          <mxGeometry relative="1" as="geometry" />
        </mxCell>
        <mxCell id="Ce19-M33MyNlMO0xDM5_-72" style="edgeStyle=orthogonalEdgeStyle;rounded=0;orthogonalLoop=1;jettySize=auto;html=1;exitX=1;exitY=0.5;exitDx=0;exitDy=0;entryX=0.004;entryY=0.866;entryDx=0;entryDy=0;entryPerimeter=0;fillColor=#6a00ff;strokeColor=#3700CC;" edge="1" parent="1" source="Ce19-M33MyNlMO0xDM5_-17" target="Ce19-M33MyNlMO0xDM5_-62">
          <mxGeometry relative="1" as="geometry" />
        </mxCell>
        <mxCell id="Ce19-M33MyNlMO0xDM5_-74" style="edgeStyle=orthogonalEdgeStyle;rounded=0;orthogonalLoop=1;jettySize=auto;html=1;exitX=0.5;exitY=0;exitDx=0;exitDy=0;entryX=0.006;entryY=0.353;entryDx=0;entryDy=0;entryPerimeter=0;fillColor=#6a00ff;strokeColor=#3700CC;" edge="1" parent="1" source="KmjipeR5iiQRehFi-2iJ-33" target="Ce19-M33MyNlMO0xDM5_-62">
          <mxGeometry relative="1" as="geometry" />
        </mxCell>
      </root>
    </mxGraphModel>
  </diagram>
</mxfile>
